<svg width="159" height="32" viewBox="0 0 159 32" fill="none" xmlns="http://www.w3.org/2000/svg">
<path d="M0.523438 31V0.53125H14.2734V7.17188H7.51562V12.2109H14V18.6758H7.51562V24.3008H14.7227V31H0.523438ZM25.2109 31.3125C22.3984 31.3125 20.2826 30.4661 18.8633 28.7734C17.444 27.0677 16.7344 24.6849 16.7344 21.625V9.20312C16.7344 6.2474 17.457 4.01432 18.9023 2.50391C20.3607 0.980469 22.4635 0.21875 25.2109 0.21875C27.9714 0.21875 30.0742 0.980469 31.5195 2.50391C32.9648 4.01432 33.6875 6.2474 33.6875 9.20312V21.625C33.6875 24.6849 32.9779 27.0677 31.5586 28.7734C30.1393 30.4661 28.0234 31.3125 25.2109 31.3125ZM25.2695 25.1797C25.9206 25.1797 26.3438 24.8867 26.5391 24.3008C26.7344 23.7018 26.832 22.9857 26.832 22.1523V8.89062C26.832 8.27865 26.7474 7.70573 26.5781 7.17188C26.4089 6.625 25.9857 6.35156 25.3086 6.35156C24.6445 6.35156 24.1888 6.60547 23.9414 7.11328C23.707 7.60807 23.5898 8.22005 23.5898 8.94922V22.1914C23.5898 23.0898 23.694 23.8125 23.9023 24.3594C24.1107 24.9062 24.5664 25.1797 25.2695 25.1797ZM36.4609 31V0.53125H45.9336C48.4076 0.53125 50.263 1.22135 51.5 2.60156C52.75 3.96875 53.375 5.97396 53.375 8.61719V20.8047C53.375 24.0599 52.8086 26.5729 51.6758 28.3438C50.543 30.1146 48.5508 31 45.6992 31H36.4609ZM43.375 24.9258H44.5664C45.8294 24.9258 46.4609 24.3138 46.4609 23.0898V9.26172C46.4609 8.11589 46.3047 7.38021 45.9922 7.05469C45.6927 6.71615 45.0742 6.54688 44.1367 6.54688H43.375V24.9258ZM55.875 31V0.53125H62.5156V31H55.875ZM65.25 31V0.53125H74.5664C77.0664 0.53125 78.8828 1.14323 80.0156 2.36719C81.1615 3.57812 81.7344 5.58333 81.7344 8.38281V9.04688C81.7344 10.6615 81.4414 11.9701 80.8555 12.9727C80.2826 13.9753 79.4036 14.6328 78.2188 14.9453C79.2474 15.2057 80.0417 15.7005 80.6016 16.4297C81.1745 17.1458 81.5716 18.0247 81.793 19.0664C82.0143 20.1081 82.125 21.2409 82.125 22.4648C82.125 23.4935 82.0078 24.5156 81.7734 25.5312C81.5521 26.5339 81.1615 27.4518 80.6016 28.2852C80.0547 29.1055 79.2865 29.763 78.2969 30.2578C77.3203 30.7526 76.0768 31 74.5664 31H65.25ZM71.9688 12.5039H73.375C74.013 12.5039 74.4232 12.2565 74.6055 11.7617C74.7878 11.2669 74.8789 10.6745 74.8789 9.98438V7.89453C74.8789 6.78776 74.3906 6.23438 73.4141 6.23438H71.9688V12.5039ZM72.6523 25.3359C74.4362 25.3359 75.3281 24.4896 75.3281 22.7969V21.0391C75.3281 20.0625 75.1784 19.2943 74.8789 18.7344C74.5924 18.1615 74.0456 17.875 73.2383 17.875H71.9688V25.2969C72.0729 25.3099 72.1836 25.3229 72.3008 25.3359C72.431 25.3359 72.5482 25.3359 72.6523 25.3359ZM92.5938 31.3125C89.7812 31.3125 87.6654 30.4661 86.2461 28.7734C84.8268 27.0677 84.1172 24.6849 84.1172 21.625V9.20312C84.1172 6.2474 84.8398 4.01432 86.2852 2.50391C87.7435 0.980469 89.8464 0.21875 92.5938 0.21875C95.3542 0.21875 97.457 0.980469 98.9023 2.50391C100.348 4.01432 101.07 6.2474 101.07 9.20312V21.625C101.07 24.6849 100.361 27.0677 98.9414 28.7734C97.5221 30.4661 95.4062 31.3125 92.5938 31.3125ZM92.6523 25.1797C93.3034 25.1797 93.7266 24.8867 93.9219 24.3008C94.1172 23.7018 94.2148 22.9857 94.2148 22.1523V8.89062C94.2148 8.27865 94.1302 7.70573 93.9609 7.17188C93.7917 6.625 93.3685 6.35156 92.6914 6.35156C92.0273 6.35156 91.5716 6.60547 91.3242 7.11328C91.0898 7.60807 90.9727 8.22005 90.9727 8.94922V22.1914C90.9727 23.0898 91.0768 23.8125 91.2852 24.3594C91.4935 24.9062 91.9492 25.1797 92.6523 25.1797ZM111.461 31.3125C109.911 31.3125 108.499 31.013 107.223 30.4141C105.947 29.8151 104.931 28.9297 104.176 27.7578C103.434 26.5729 103.062 25.1211 103.062 23.4023V17.5234H109.859V22.9922C109.859 23.5911 109.977 24.0729 110.211 24.4375C110.458 24.8021 110.849 24.9844 111.383 24.9844C112.411 24.9844 112.926 24.3529 112.926 23.0898V0.53125H119.859V22.4062C119.859 24.2292 119.501 25.8112 118.785 27.1523C118.069 28.4805 117.079 29.5091 115.816 30.2383C114.553 30.9544 113.102 31.3125 111.461 31.3125ZM130.719 31.3125C127.906 31.3125 125.79 30.4661 124.371 28.7734C122.952 27.0677 122.242 24.6849 122.242 21.625V9.20312C122.242 6.2474 122.965 4.01432 124.41 2.50391C125.868 0.980469 127.971 0.21875 130.719 0.21875C133.479 0.21875 135.582 0.980469 137.027 2.50391C138.473 4.01432 139.195 6.2474 139.195 9.20312V21.625C139.195 24.6849 138.486 27.0677 137.066 28.7734C135.647 30.4661 133.531 31.3125 130.719 31.3125ZM130.777 25.1797C131.428 25.1797 131.852 24.8867 132.047 24.3008C132.242 23.7018 132.34 22.9857 132.34 22.1523V8.89062C132.34 8.27865 132.255 7.70573 132.086 7.17188C131.917 6.625 131.493 6.35156 130.816 6.35156C130.152 6.35156 129.697 6.60547 129.449 7.11328C129.215 7.60807 129.098 8.22005 129.098 8.94922V22.1914C129.098 23.0898 129.202 23.8125 129.41 24.3594C129.618 24.9062 130.074 25.1797 130.777 25.1797ZM141.969 31V0.53125H151.285C153.785 0.53125 155.602 1.14323 156.734 2.36719C157.88 3.57812 158.453 5.58333 158.453 8.38281V9.04688C158.453 10.6615 158.16 11.9701 157.574 12.9727C157.001 13.9753 156.122 14.6328 154.938 14.9453C155.966 15.2057 156.76 15.7005 157.32 16.4297C157.893 17.1458 158.29 18.0247 158.512 19.0664C158.733 20.1081 158.844 21.2409 158.844 22.4648C158.844 23.4935 158.727 24.5156 158.492 25.5312C158.271 26.5339 157.88 27.4518 157.32 28.2852C156.773 29.1055 156.005 29.763 155.016 30.2578C154.039 30.7526 152.796 31 151.285 31H141.969ZM148.688 12.5039H150.094C150.732 12.5039 151.142 12.2565 151.324 11.7617C151.507 11.2669 151.598 10.6745 151.598 9.98438V7.89453C151.598 6.78776 151.109 6.23438 150.133 6.23438H148.688V12.5039ZM149.371 25.3359C151.155 25.3359 152.047 24.4896 152.047 22.7969V21.0391C152.047 20.0625 151.897 19.2943 151.598 18.7344C151.311 18.1615 150.764 17.875 149.957 17.875H148.688V25.2969C148.792 25.3099 148.902 25.3229 149.02 25.3359C149.15 25.3359 149.267 25.3359 149.371 25.3359Z" fill="#F69800"/>
</svg>
